<svg xmlns="http://www.w3.org/2000/svg" xmlns:xlink="http://www.w3.org/1999/xlink" width="967" height="563" viewBox="0 0 967 563">
  <defs>
    <linearGradient id="linear-gradient" x1="119.783" y1="1170.587" x2="119.783" y2="1171.613" gradientUnits="objectBoundingBox">
      <stop offset="0" stop-color="gray" stop-opacity="0.251"/>
      <stop offset="0.54" stop-color="gray" stop-opacity="0.122"/>
      <stop offset="1" stop-color="gray" stop-opacity="0.102"/>
    </linearGradient>
  </defs>
  <g id="Group_5" data-name="Group 5" transform="translate(850 -471)">
    <rect id="Rectangle_14" data-name="Rectangle 14" width="967" height="563" transform="translate(-850 471)" fill="#fff"/>
    <g id="Group_4" data-name="Group 4" transform="translate(-699.131 520)">
      <path id="Path_20" data-name="Path 20" d="M826.56,545.281H815.588L810.367,460H826.56Z" transform="translate(-272.734 -59.71)" fill="#a0616a"/>
      <path id="Path_21" data-name="Path 21" d="M805.375,554.4h21.158v13.322h-34.48A13.322,13.322,0,0,1,805.375,554.4Z" transform="translate(-270.357 -71.964)" fill="#2f2e41"/>
      <path id="Path_22" data-name="Path 22" d="M883.917,532.456l-10.079,4.332-43.261-80.327,14.877-6.393Z" transform="translate(-275.358 -58.421)" fill="#a0616a"/>
      <path id="Path_23" data-name="Path 23" d="M13.322,0H34.48V13.322H0A13.322,13.322,0,0,1,13.322,0Z" transform="translate(577.802 483.847) rotate(-23.256)" fill="#2f2e41"/>
      <path id="Path_24" data-name="Path 24" d="M829.569,277.808H639.488a5.672,5.672,0,0,1-5.665-5.665V170.625a5.672,5.672,0,0,1,5.665-5.665H829.569a5.672,5.672,0,0,1,5.665,5.665V272.143a5.671,5.671,0,0,1-5.665,5.665Z" transform="translate(-334.556 -164.96)" fill="#e6e6e6"/>
      <circle id="Ellipse_27" data-name="Ellipse 27" cx="20.901" cy="20.901" r="20.901" transform="translate(338.745 29.238)" fill="#fff"/>
      <path id="Path_25" data-name="Path 25" d="M819.1,200.118H733.759a3.2,3.2,0,1,1,0-6.391H819.1a3.2,3.2,0,1,1,0,6.391Z" transform="translate(-348.27 -168.694)" fill="#fff"/>
      <path id="Path_26" data-name="Path 26" d="M774.421,216.907H733.759a3.2,3.2,0,1,1,0-6.391h40.662a3.2,3.2,0,1,1,0,6.391Z" transform="translate(-340.829 -170.873)" fill="#fff"/>
      <path id="Path_27" data-name="Path 27" d="M803.06,233.688h-69.3a3.2,3.2,0,1,1,0-6.391h69.3a3.2,3.2,0,0,1,0,6.391Z" transform="translate(-345.491 -173.052)" fill="#fff"/>
      <path id="Path_28" data-name="Path 28" d="M819.1,250.469H733.759a3.2,3.2,0,1,1,0-6.391H819.1a3.2,3.2,0,1,1,0,6.391Z" transform="translate(-348.27 -175.23)" fill="#fff"/>
      <path id="Path_29" data-name="Path 29" d="M826.248,280.031h-14.13a5.868,5.868,0,0,1,0-11.736h14.13a5.868,5.868,0,1,1,0,11.736Z" transform="translate(-362.02 -178.373)" fill="#fff"/>
      <path id="Path_30" data-name="Path 30" d="M513.5,293.754H380.777a3.96,3.96,0,0,1-3.956-3.956V218.916a3.96,3.96,0,0,1,3.956-3.955H513.5a3.96,3.96,0,0,1,3.956,3.956V289.8A3.96,3.96,0,0,1,513.5,293.754Z" transform="translate(-231.309 -171.45)" fill="#f2f2f2"/>
      <circle id="Ellipse_28" data-name="Ellipse 28" cx="14.594" cy="14.594" r="14.594" transform="translate(162.475 63.925)" fill="#fff"/>
      <path id="Path_31" data-name="Path 31" d="M506.184,239.508H446.6a2.231,2.231,0,1,1,0-4.463h59.584a2.231,2.231,0,1,1,0,4.463Z" transform="translate(-248.306 -174.057)" fill="#fff"/>
      <path id="Path_32" data-name="Path 32" d="M474.991,251.231H446.6a2.231,2.231,0,0,1,0-4.463h28.391a2.231,2.231,0,0,1,0,4.463Z" transform="translate(-245.823 -175.579)" fill="#fff"/>
      <path id="Path_33" data-name="Path 33" d="M494.987,262.947H446.6a2.231,2.231,0,0,1,0-4.463h48.388a2.231,2.231,0,1,1,0,4.463Z" transform="translate(-247.39 -177.1)" fill="#fff"/>
      <path id="Path_34" data-name="Path 34" d="M506.184,274.664H446.6a2.231,2.231,0,0,1,0-4.463h59.584a2.231,2.231,0,1,1,0,4.463Z" transform="translate(-248.306 -178.621)" fill="#fff"/>
      <path id="Path_35" data-name="Path 35" d="M511.177,295.306h-9.866a4.1,4.1,0,1,1,0-8.195h9.866a4.1,4.1,0,0,1,0,8.195Z" transform="translate(-261.658 -180.816)" fill="#fff"/>
      <path id="Path_36" data-name="Path 36" d="M756.654,409.663H508.474a7.405,7.405,0,0,1-7.4-7.4V269.719a7.405,7.405,0,0,1,7.4-7.4h248.18a7.405,7.405,0,0,1,7.4,7.4V402.266A7.405,7.405,0,0,1,756.654,409.663Z" transform="translate(-294.438 -177.598)" fill="#28233d"/>
      <circle id="Ellipse_29" data-name="Ellipse 29" cx="27.289" cy="27.289" r="27.289" transform="translate(252.141 122.899)" fill="#fff"/>
      <path id="Path_37" data-name="Path 37" d="M742.98,308.227H631.56a4.173,4.173,0,0,1,0-8.345H742.98a4.173,4.173,0,0,1,0,8.345Z" transform="translate(-317.355 -182.474)" fill="#fff"/>
      <path id="Path_38" data-name="Path 38" d="M684.651,330.147H631.56a4.173,4.173,0,0,1,0-8.345h53.091a4.173,4.173,0,1,1,0,8.345Z" transform="translate(-308.863 -185.319)" fill="#fff"/>
      <path id="Path_39" data-name="Path 39" d="M722.043,352.057H631.56a4.173,4.173,0,0,1,0-8.345h90.483a4.173,4.173,0,0,1,0,8.345Z" transform="translate(-314.14 -188.163)" fill="#fff"/>
      <path id="Path_40" data-name="Path 40" d="M742.98,373.967H631.56a4.173,4.173,0,0,1,0-8.345H742.98a4.173,4.173,0,0,1,0,8.345Z" transform="translate(-317.355 -191.007)" fill="#fff"/>
      <path id="Path_41" data-name="Path 41" d="M752.318,412.566H733.87a7.662,7.662,0,0,1,0-15.324h18.448a7.662,7.662,0,1,1,0,15.324Z" transform="translate(-337.374 -195.111)" fill="#fff"/>
      <path id="Path_42" data-name="Path 42" d="M1029.119,605.862s-21.746-110.88-25.175-120.226c-1.888-5.108-3.133-8.824-3.133-8.824L936.9,480.467l-.522,5.169-8.615,129.676s3.046-8.241,5.778-9.755,2.445,9.737,2.445,9.737" transform="translate(-418.947 -205.44)" fill="#d7c28c"/>
      <path id="Path_43" data-name="Path 43" d="M937.569,468.994H993.5c-1.57-5.62,0-10.83,2.244-14.826a32.748,32.748,0,0,1,5.856-7.6l.384-.344,19.544-4.333,1.051-.229s.155-35.509-12.414-40.381a76.845,76.845,0,0,1-19.264-10.759,3.455,3.455,0,0,0-2.022-.741l-27.436-1a3.5,3.5,0,0,0-2.324.781c-4.536,3.647-18.96,10.969-26.716,14.8a5.906,5.906,0,0,0-2.8,7.659c3.1,7.111,8.359,19,8.912,19C939.308,431.018,937.569,468.994,937.569,468.994Z" transform="translate(-419.122 -194.012)" fill="#28233d"/>
      <path id="Path_44" data-name="Path 44" d="M978.121,412.713l26.287,67.975s-17.772,4.1-34.914-16.852l-6.186-13.5L949.37,398.872Z" transform="translate(-421.751 -195.323)" fill="#f6f8fb"/>
      <circle id="Ellipse_30" data-name="Ellipse 30" cx="35.678" cy="35.678" r="35.678" transform="translate(527.67 109.645)" fill="#2f2e41"/>
      <path id="Path_45" data-name="Path 45" d="M964.183,467.565a7.283,7.283,0,0,0,8.4,2.216l19.114,7.48,6.368-14.4-21.536-2.781a7.279,7.279,0,1,0-12.347,7.484Z" transform="translate(-423.468 -202.705)" fill="#a0616a"/>
      <circle id="Ellipse_31" data-name="Ellipse 31" cx="22.833" cy="22.833" r="22.833" transform="translate(535.105 143.935)" fill="#a0616a"/>
      <path id="Path_46" data-name="Path 46" d="M1012.679,335.715a78.847,78.847,0,0,1-39.63,9.575c-5.294-.137-11.127-1.1-14.479-5.2-3.783-4.625-2.836-11.852.813-16.584s9.358-7.4,15.053-9.208c5.388-1.712,11.162-2.814,16.688-1.617a20.779,20.779,0,0,1,15.058,27.606" transform="translate(-422.632 -184.07)" fill="#2f2e41"/>
      <circle id="Ellipse_32" data-name="Ellipse 32" cx="20.014" cy="20.014" r="20.014" transform="translate(568.569 100.072)" fill="#2f2e41"/>
      <path id="Path_47" data-name="Path 47" d="M1022.043,438.706l7.7,9.435,1.57,25.609s2.022,13.04-12.885,9.9-34.093-9.247-34.093-9.247,10.209-14.8,5.653-19.037l21.37,6.914s3.612-.788.782-3.929-3.329-8.8-3.329-8.8Z" transform="translate(-426.29 -200.494)" fill="#28233d"/>
      <path id="Path_48" data-name="Path 48" d="M977.981,460.854a7.283,7.283,0,0,1-8.26-2.7l-20.114-4.086,2.462-15.55,19.6,9.348a7.279,7.279,0,1,1,6.312,12.985Z" transform="translate(-421.782 -200.47)" fill="#a0616a"/>
      <path id="Path_49" data-name="Path 49" d="M946.53,420.435s-3.49,4.485-7.572,5.587-1.475,3.725-1.475,3.725l21.7,5.785c-6.127,1.089-5.579,19.059-5.579,19.059s-19.43-5.278-33.656-10.728-5.453-15.307-5.453-15.307L929.711,407.9l11.589-3.747Z" transform="translate(-416.878 -196.008)" fill="#28233d"/>
      <path id="Path_50" data-name="Path 50" d="M36.427,532.379l10.471,4.5,22.341-38.247L53.785,491.99Z" transform="translate(-4.728 -63.863)" fill="#f7d2bb"/>
      <path id="Path_51" data-name="Path 51" d="M0,0H35.82V13.839h-22.5A13.322,13.322,0,0,1,0,.517Z" transform="translate(58.182 491.418) rotate(-156.744)" fill="#2f2e41"/>
      <path id="Path_52" data-name="Path 52" d="M119.429,546.656h11.4l5.424-43.961H119.429Z" transform="translate(-15.502 -65.252)" fill="#f7d2bb"/>
      <path id="Path_53" data-name="Path 53" d="M0,0H35.82V13.839h-22.5A13.322,13.322,0,0,1,0,.517V0Z" transform="translate(137.304 491.987) rotate(180)" fill="#2f2e41"/>
      <g id="Group_3" data-name="Group 3" transform="translate(34.544 145.998)" opacity="0.1">
        <path id="Path_54" data-name="Path 54" d="M190.208,332.75l.644.139A.87.87,0,0,0,190.208,332.75Z" transform="translate(-190.208 -332.737)" fill="url(#linear-gradient)"/>
      </g>
      <path id="Path_55" data-name="Path 55" d="M277.586,649.051l-26.216,1.04c-6.4-4.3-26.27-105.948-26.27-105.948.136.786-2.486,100.886-2.486,100.886h-28.2L180.552,488.934l15.294,6.158s70.034-5.679,73.3-1.638C269.831,494.773,277.586,649.051,277.586,649.051Z" transform="translate(-154.41 -207.013)" fill="#2f2e41"/>
      <circle id="Ellipse_33" data-name="Ellipse 33" cx="22.833" cy="22.833" r="22.833" transform="translate(41.302 125.661)" fill="#f7d2bb"/>
      <path id="Path_56" data-name="Path 56" d="M268.258,537.825a7.566,7.566,0,0,1-.1-9.026l-2.682-21.153,16.121-2.76-2.666,22.4a7.562,7.562,0,1,1-10.673,10.537Z" transform="translate(-165.434 -209.084)" fill="#f7d2bb"/>
      <path id="Path_57" data-name="Path 57" d="M228.187,318l.5.109a.7.7,0,0,0-.5-.109Z" transform="translate(-160.594 -184.825)" fill="#e1e7ef"/>
      <path id="Path_58" data-name="Path 58" d="M212.152,322.112c4.971,1.086,10.03,2.122,15.107,1.784s10.255-2.217,13.552-6.093,4.209-9.961,1.282-14.124c-3.48-4.95-10.457-5.543-16.506-5.669l-19.061-.4c-3.766-.078-7.718-.115-11.053,1.636-5.795,3.041-7.8,10.428-7.679,16.972a43.407,43.407,0,0,0,15.95,32.567c2.58,2.076,6.827,3.655,8.793.99.857-1.162-7.514-14.531-7.538-15.975-.14-8.392,8.1-4.974,7.961-13.365" transform="translate(-155.35 -182.176)" fill="#2f2e41"/>
      <path id="Path_59" data-name="Path 59" d="M188.653,479.25c21.728,16.992,45.711,25.557,72.86,22.293-11.466-40.259-14.867-80.213-3.806-119.621L234.87,371.591l-30.993-1.631-18.657,5.487a12.475,12.475,0,0,0-8.949,12.213C176.93,421.268,180.018,452.72,188.653,479.25Z" transform="translate(-153.854 -191.57)" fill="#e6e6e6"/>
      <path id="Path_60" data-name="Path 60" d="M267.851,505.94l14.137,1.631L278.678,402.6a24.435,24.435,0,0,0-15.025-21.785l-5.046-2.1,1.359,49.208Z" transform="translate(-164.542 -192.705)" fill="#e6e6e6"/>
      <path id="Path_61" data-name="Path 61" d="M187.435,511.483a7.566,7.566,0,0,1-3.663-8.25l-10.834-18.364,13.713-8.914,6.417,21.627a7.562,7.562,0,1,1-5.632,13.9Z" transform="translate(-153.422 -205.329)" fill="#f7d2bb"/>
      <path id="Path_62" data-name="Path 62" d="M178.785,490.351l13.236-9.762L177.7,438.153l5.165-62.257h0c-11.221,3.527-23.269,13-25.253,24.593l-7.1,41.47Z" transform="translate(-150.511 -192.341)" fill="#e6e6e6"/>
      <path id="Path_63" data-name="Path 63" d="M38.056,270.993,32.23,294.3l13.22,33.067L35.367,296.088Z" transform="translate(-4.184 -35.176)" opacity="0.2"/>
      <path id="Path_64" data-name="Path 64" d="M104.771,284.875l4.5,49.933-7.615-49.585Z" transform="translate(-13.195 -36.978)" opacity="0.2"/>
    </g>
  </g>
</svg>
