<svg xmlns="http://www.w3.org/2000/svg" xmlns:xlink="http://www.w3.org/1999/xlink" width="967" height="563" viewBox="0 0 967 563">
  <defs>
    <linearGradient id="linear-gradient" x1="0.5" y1="1" x2="0.5" gradientUnits="objectBoundingBox">
      <stop offset="0" stop-color="gray" stop-opacity="0.251"/>
      <stop offset="0.54" stop-color="gray" stop-opacity="0.122"/>
      <stop offset="1" stop-color="gray" stop-opacity="0.102"/>
    </linearGradient>
  </defs>
  <g id="Group_10" data-name="Group 10" transform="translate(850 -471)">
    <g id="Group_5" data-name="Group 5">
      <g id="Group_8" data-name="Group 8">
        <g id="Group_9" data-name="Group 9">
          <rect id="Rectangle_14" data-name="Rectangle 14" width="967" height="563" transform="translate(-850 471)" fill="#fff"/>
          <g id="Group_7" data-name="Group 7" transform="translate(-720.063 549.107)">
            <path id="Path_20" data-name="Path 20" d="M744.4,526.245c-7.079,5.869-15.625,10.052-24.853,13.147q-2.014.689-4.086,1.287c-3.565,1.062-7.214,1.982-10.895,2.786-1.815.405-3.642.779-5.47,1.126-3.108.6-6.229,1.133-9.331,1.622-11.513,1.808-23.1,3.147-34.75,4.164q-5.386.476-10.779.856l-1.435.1-2.574.174-1.583.1c-2.407.161-4.814.3-7.214.438-9.621.541-19.254.933-28.888,1.287-7.079.245-14.087.45-21.127.644L567.1,554.4l-3.7.109-1.622.045q-6.358.193-12.729.367l-1.2.032-3.732.109-7.079.193-2.111.058-1.931.052c-44.937,1.21-89.907,2.091-134.818,1.712q-5.393-.039-10.779-.116c-33.347-.431-66.656-1.6-99.907-3.861-11.686-.8-23.45-1.763-35.149-3.1q-5.406-.611-10.779-1.332c-28.74-3.861-56.772-10.374-81.882-22.523-18.913-9.17-36.372-22.214-43.7-39.57-7.394-17.517-3.481-37.189,4.962-54.358s21.146-32.556,32.1-48.689c3.765-5.554,7.323-11.339,10.547-17.285.193-.36.393-.727.579-1.088q2.478-4.653,4.672-9.421h0q2.085-4.543,3.861-9.177.534-1.384,1.023-2.761c.039-.1.077-.206.109-.309s.084-.232.122-.348a119.141,119.141,0,0,0,4.852-17.935l.154-.849c.071-.405.142-.8.206-1.21s.122-.753.18-1.133h0a88.808,88.808,0,0,0,1-17.279v-.644a73.323,73.323,0,0,0-.965-8.835h0c-.039-.251-.077-.5-.129-.74a69.191,69.191,0,0,0-3.391-12.291c-.064-.174-.135-.354-.206-.534a.723.723,0,0,0-.09-.238c-.483-1.229-1-2.445-1.564-3.662h0c-.09-.206-.193-.418-.29-.644h0c-.187-.393-.373-.785-.573-1.171h0q-1.358-2.774-3.025-5.476c-1.287-2.143-2.748-4.241-4.247-6.3l-.212-.29-.174-.245c-1.969-2.684-4.028-5.322-6.036-7.986-1.577-2.079-3.121-4.17-4.569-6.3l-.257-.386a64.19,64.19,0,0,1-4.685-8.063c-.27-.573-.534-1.145-.779-1.725-.438-1.017-.843-2.04-1.2-3.07-4.942-13.964-3.443-29.216-1.068-43.76,3.52-21.61,10.071-44.9,30.349-58.387,17.7-11.783,41.662-13.16,64.352-10.3,3.636.45,7.233,1.01,10.779,1.654l1.931.367c28.7,5.5,55.845,15.245,82.654,25.677,6.261,2.439,12.51,4.917,18.752,7.381q7.317,2.889,14.64,5.747,8.462,3.295,17.053,6.435,5.367,1.969,10.779,3.861,8.681,3.018,17.478,5.734,6.229,1.931,12.523,3.636c19.949,5.431,40.413,9.2,61.36,9.923a187.445,187.445,0,0,0,47.5-4.4c3.636-.824,7.24-1.77,10.779-2.838a140.29,140.29,0,0,0,14.544-5.27c11.976-5.148,22.742-11.944,31.262-20.593l.071-.071c12.619-12.8,31.121-19.306,50.5-20.393a105.619,105.619,0,0,1,10.779-.058,106.992,106.992,0,0,1,39.049,9.138c30.658,13.9,50.484,43.328,48.991,72.718-2.169,42.781-43.412,75.62-68.02,113.048-1.737,2.638-3.391,5.361-4.929,8.141-.566,1.017-1.107,2.04-1.635,3.07-6.062,11.841-9.7,24.628-7.722,36.912a39.412,39.412,0,0,0,1.57,6.377c.3.907.644,1.815,1.023,2.716a50.511,50.511,0,0,0,12.8,17.517,87.517,87.517,0,0,0,7.87,6.4c22.961,16.693,56.218,27.221,70.91,50.027C767.173,485.458,762.63,511.1,744.4,526.245Z" transform="translate(-90.341 -109.274)" fill="#d7c28c" opacity="0.1"/>
            <path id="Path_21" data-name="Path 21" d="M673.068,446.358V347.2h13.456c.528-1.03,1.068-2.053,1.635-3.07H673.068V239.877h52.769c-.116-1.023-.245-2.059-.373-3.07h-52.4V141.083a105.625,105.625,0,0,0-10.779.058v95.647h-96.38v-49.3c-3.539,1.068-7.143,2.014-10.779,2.838v46.462H417.551l-.328-.586,29.049-51.4q-6.294-1.705-12.523-3.636L416.27,212.089V175.409q-5.412-1.879-10.779-3.861v43.94L373.8,159.411c-6.242-2.465-12.491-4.942-18.752-7.381l47.621,84.205-.335.586h-131.9V125.954c-3.546-.644-7.143-1.2-10.779-1.654V236.788H166c.36,1.03.766,2.053,1.2,3.07h92.455V344.108H191.919c-.032.1-.071.206-.109.309q-.489,1.377-1.023,2.761h68.857v99.18H162.69q.45,1.532.933,3.07h96.033V550.9q5.406,1.429,10.779,2.986V449.427H405.5V557.642q5.386.077,10.779.116V449.427H555.13V555.911l7.079-.193,3.732-.109V449.427h96.323V551.915q5.393-.386,10.779-.856V449.427h42.151c-.116-1.023-.225-2.046-.335-3.07Zm-267.577,0H270.435V347.2H405.5Zm0-102.23H270.435V239.877H403.567l1.931,2.786ZM555.13,446.358H416.27V347.2H555.13Zm0-102.23H416.27V239.877H555.13Zm107.134,102.23H565.909V347.2h96.355Zm0-102.23H565.909V239.877h96.355Z" transform="translate(-108.383 -109.943)" fill="#6c63ff" opacity="0.1"/>
            <path id="Path_22" data-name="Path 22" d="M850.932,192.56a3.719,3.719,0,0,1-3.565,3.861h-7.195a3.81,3.81,0,0,1,2.729,3.732,3.72,3.72,0,0,1-3.565,3.861H814.341a3.4,3.4,0,0,1-2.471-1.081c11.976-5.148,22.742-11.944,31.262-20.593l.071-.071h.785A3.43,3.43,0,0,1,846.5,183.4a4.028,4.028,0,0,1,0,5.393h.843a3.72,3.72,0,0,1,3.584,3.771Z" transform="translate(-339.801 -130.608)" fill="#6c63ff" opacity="0.1"/>
            <path id="Path_23" data-name="Path 23" d="M425.938,245.478h-.83a3.983,3.983,0,0,0,1.017-2.677h0a3.72,3.72,0,0,0-3.565-3.861H397.565A3.72,3.72,0,0,0,394,242.8h0a3.72,3.72,0,0,0,3.565,3.861h.837a3.983,3.983,0,0,0-1.023,2.677,3.816,3.816,0,0,0,2.729,3.732h-7.195a3.861,3.861,0,0,0,0,7.677h24.994a3.72,3.72,0,0,0,3.565-3.861,3.8,3.8,0,0,0-2.7-3.752h7.195a3.861,3.861,0,0,0,0-7.684Z" transform="translate(-189.224 -150.809)" fill="#6c63ff" opacity="0.1"/>
            <path id="Path_24" data-name="Path 24" d="M906.38,488.628h-.837a3.951,3.951,0,0,0,1.017-2.677h0A3.72,3.72,0,0,0,903,482.09H878a3.726,3.726,0,0,0-3.565,3.861h0A3.726,3.726,0,0,0,878,489.812h.837a3.977,3.977,0,0,0-1.017,2.677,3.8,3.8,0,0,0,2.729,3.726h-7.195a3.861,3.861,0,0,0,0,7.684h24.995a3.726,3.726,0,0,0,3.565-3.861,3.8,3.8,0,0,0-2.728-3.726h7.194a3.861,3.861,0,0,0,0-7.684Z" transform="translate(-360.48 -237.487)" fill="#6c63ff" opacity="0.1"/>
            <ellipse id="Ellipse_27" data-name="Ellipse 27" cx="51.418" cy="68.156" rx="51.418" ry="68.156" transform="matrix(0.99, -0.143, 0.143, 0.99, 34.148, 137.494)" opacity="0.1"/>
            <ellipse id="Ellipse_28" data-name="Ellipse 28" cx="51.418" cy="68.156" rx="51.418" ry="68.156" transform="matrix(0.99, -0.143, 0.143, 0.99, 35.479, 136.944)" fill="#3a3768"/>
            <path id="Path_25" data-name="Path 25" d="M252.009,382.357A73.4,73.4,0,0,1,248.5,400.91a55.041,55.041,0,0,1-10.605,19.068c-5.792,6.622-13.154,11-21.507,12.227a32.481,32.481,0,0,1-4.164.322c-22.588.309-43.682-23.167-48.232-54.745-4.807-33.5,10.8-63.522,34.9-66.965a34.314,34.314,0,0,1,20.869,3.8c9.479,4.891,17.864,13.887,23.733,25.509h0a81.573,81.573,0,0,1,7.793,25.1,83.272,83.272,0,0,1,.721,17.131Z" transform="translate(-108.536 -176.314)" fill="#6c63ff"/>
            <path id="Path_26" data-name="Path 26" d="M246.455,409.136l-3.115,28.373s9.962-.933,12.87-5.914l-9.183-22.935Z" transform="translate(-137.133 -211.311)" fill="#6c63ff"/>
            <path id="Path_27" data-name="Path 27" d="M246.455,409.136l-3.115,28.373s9.962-.933,12.87-5.914l-9.183-22.935Z" transform="translate(-137.133 -211.311)" opacity="0.2"/>
            <path id="Path_28" data-name="Path 28" d="M180.064,407.345l15.67-1.055s1.628,11.905,6.577,18.6l-11.127,12.1S179.646,418.607,180.064,407.345Z" transform="translate(-114.572 -210.466)" opacity="0.2"/>
            <rect id="Rectangle_15" data-name="Rectangle 15" width="54.198" height="0.644" transform="translate(68.21 235.042) rotate(-47)" fill="#fff" opacity="0.3"/>
            <path id="Path_29" data-name="Path 29" d="M85.461,305.229l-.051-.644,51.4-3.745.051.637Z" transform="translate(-30.447 -107.242)" fill="#fff" opacity="0.3"/>
            <path id="Path_30" data-name="Path 30" d="M274.361,342.376h0l-4.447,5.393c-11-21.05-20.174-22.234-20.174-22.234l.888-8.675C260.12,321.757,268.505,330.754,274.361,342.376Z" transform="translate(-139.414 -178.586)" opacity="0.2"/>
            <path id="Path_31" data-name="Path 31" d="M209.79,366.9l20.3,21.236-1.422.6-23.6-9.28S206.952,371.907,209.79,366.9Z" transform="translate(-123.487 -196.424)" opacity="0.2"/>
            <rect id="Rectangle_16" data-name="Rectangle 16" width="0.644" height="52.614" transform="translate(56.207 173.067) rotate(-68.55)" fill="#fff" opacity="0.3"/>
            <path id="Path_32" data-name="Path 32" d="M250.79,401.342,267.341,399s1.165,6.847.547,8.848a1.5,1.5,0,0,1-.071.18Z" transform="translate(-139.789 -207.867)" opacity="0.2"/>
            <path id="Path_33" data-name="Path 33" d="M192.14,339.335s6.918-9.994,15.535-12.645l7.619,18.218s-7.426,2.748-10.026,8.231Z" transform="translate(-118.881 -182.09)" opacity="0.2"/>
            <path id="Path_34" data-name="Path 34" d="M233.365,367.156l-.553-.071c-.122,0-.257-.039-.347-.425l-22.684-53.67.592-.251,21.951,51.945c0-2.889.347-9.325,1.551-23.669,1.062-12.665,2.3-25.471,2.31-25.6l.644.064c-1.84,19.055-4.3,47.621-3.81,50.838Z" transform="translate(-125.17 -177.117)" fill="#fff" opacity="0.3"/>
            <rect id="Rectangle_17" data-name="Rectangle 17" width="0.644" height="56.932" transform="translate(65.932 150.277) rotate(-44.18)" fill="#fff" opacity="0.3"/>
            <path id="Path_35" data-name="Path 35" d="M269.87,372.321l6.931-7.851s6.583,16.236,5.843,21.063l-8.231,1.158S271.453,372.759,269.87,372.321Z" transform="translate(-146.59 -195.558)" opacity="0.2"/>
            <rect id="Rectangle_18" data-name="Rectangle 18" width="36.662" height="0.644" transform="translate(110.364 191.004) rotate(-48.39)" fill="#fff" opacity="0.3"/>
            <path id="Path_36" data-name="Path 36" d="M250.988,382.791l-.039-.341a.665.665,0,0,0-.045-.3c-.045-.1,0-.264-.051-.4a42.557,42.557,0,0,0-4.26-13.482c-.071-.135-.142-.27-.219-.405a1.407,1.407,0,0,0-.1-.193c-3.462-6.435-8.43-11.242-13.971-13.514-.206-.09-.412-.167-.644-.245a18.174,18.174,0,0,0-9.009-1.023,17.153,17.153,0,0,0-3.321.817,1.564,1.564,0,0,0-.245.084l-.367.135a21.088,21.088,0,0,0-9.511,7.8l-.071.1-.187.277h0a1.42,1.42,0,0,0-.109.161c-.27.405-.534.817-.785,1.248s-.476.824-.7,1.287a34.209,34.209,0,0,0-3.153,8.842c-.052.212-.1.431-.135.644a42.227,42.227,0,0,0-.5,12.562l.039.38a.708.708,0,0,0,.032.257c.045.354.09.708.142,1.062a41.449,41.449,0,0,0,6.5,17.259c.039.064.084.122.129.187s.161.238.251.354c.219.322.444.643.682.94,4.5,5.991,10.534,9.807,16.854,10.258.277,0,.56.032.843.039h.644a16.858,16.858,0,0,0,2.265-.174,18.714,18.714,0,0,0,10.226-5.148c.167-.154.335-.315.5-.483a27.942,27.942,0,0,0,6.017-9.486c.09-.219.174-.438.257-.644a38.251,38.251,0,0,0,2.149-9.576l.058-.676a43.574,43.574,0,0,0-.154-8.61Zm-2.516,18.373c-.077.225-.161.45-.245.643a27.529,27.529,0,0,1-5.792,9.338c-.161.167-.322.335-.489.489a18.115,18.115,0,0,1-10.052,5.11,15.649,15.649,0,0,1-2.117.167h-.644c-6.609-.135-12.941-4.119-17.594-10.5l-.4-.56c-.129-.18-.251-.36-.367-.547a40.729,40.729,0,0,1-6.313-16.873c-.051-.341-.1-.682-.135-1.017,0-.219-.051-.431-.071-.644a41.591,41.591,0,0,1,.47-12.272c.039-.219.077-.431.129-.643a33.507,33.507,0,0,1,3.121-8.784l.425-.779c.3-.534.644-1.055.946-1.551.1-.148.193-.3.3-.438a1.046,1.046,0,0,1,.071-.109,20.535,20.535,0,0,1,9.305-7.677l.6-.225h0a17.086,17.086,0,0,1,6.789-.895,18.463,18.463,0,0,1,5.219,1.171l.644.251c5.393,2.265,10.213,7.027,13.572,13.353.109.2.212.405.315.611a42.15,42.15,0,0,1,4.054,13.076l.058.393h0v.238c0,.077.032.264.045.4a42.474,42.474,0,0,1,.2,8.256v.206l-.039.47h0A37.267,37.267,0,0,1,248.471,401.164Z" transform="translate(-122.862 -191.369)" fill="#fff" opacity="0.3"/>
            <path id="Path_37" data-name="Path 37" d="M295.643,420.758a73.4,73.4,0,0,1-3.514,18.553l-6.609-6.686c1.8-2.716,2.909-14.415,2.909-14.415l.38.264C289.143,419.188,292.8,420.121,295.643,420.758Z" transform="translate(-152.169 -214.715)" opacity="0.2"/>
            <rect id="Rectangle_19" data-name="Rectangle 19" width="0.644" height="40.388" transform="matrix(0.705, -0.709, 0.709, 0.705, 111.124, 196.264)" fill="#fff" opacity="0.3"/>
            <path id="Path_38" data-name="Path 38" d="M204.423,311.258,171.41,297.911,203.8,293.04l.1.637-30.065,4.518,30.825,12.465Z" transform="translate(-61.104 -104.462)" fill="#fff" opacity="0.3"/>
            <path id="Path_39" data-name="Path 39" d="M265.09,474.706c-5.792,6.622-13.154,11-21.507,12.227a32.486,32.486,0,0,1-4.164.322l1.351-13.514s12.375.187,19.544-9.8Z" transform="translate(-135.736 -231.017)" opacity="0.2"/>
            <rect id="Rectangle_20" data-name="Rectangle 20" width="0.644" height="49.558" transform="matrix(0.922, -0.386, 0.386, 0.922, 109.84, 198.195)" fill="#fff" opacity="0.3"/>
            <rect id="Rectangle_21" data-name="Rectangle 21" width="57.981" height="0.644" transform="translate(103.596 256.188) rotate(-85.04)" fill="#fff" opacity="0.3"/>
            <path id="Path_40" data-name="Path 40" d="M250.538,371.317a4.5,4.5,0,0,0-.077-.644c-.058-.528-.129-1.055-.206-1.583a68.284,68.284,0,0,0-5.5-18.836V350.2l-.27-.573c-4.717-9.942-11.616-17.7-19.46-21.963-.154-.09-.315-.174-.476-.257l-.135-.071a27.568,27.568,0,0,0-16.732-3.057,25.74,25.74,0,0,0-4.7,1.139l-.6.219h0a30.477,30.477,0,0,0-13.109,9.878q-.965,1.216-1.847,2.535c-.122.18-.245.36-.36.547a51.752,51.752,0,0,0-7.2,18.662c-.045.212-.084.425-.116.644a67.492,67.492,0,0,0-.457,19.833,4.522,4.522,0,0,0,.084.644c.032.219.077.611.122.92.071.5.148,1,.232,1.487v.045c.315,1.931.708,3.8,1.171,5.644a.187.187,0,0,0,0,.058,62.422,62.422,0,0,0,9.486,21.037c.122.18.245.354.38.534a49.831,49.831,0,0,0,4.119,4.962c.862.914,1.75,1.77,2.651,2.574,5.837,5.232,12.356,8.2,18.965,8.675.772.051,1.551.071,2.323.051h.27a3.664,3.664,0,0,0,.38,0,24.8,24.8,0,0,0,2.574-.232,27.909,27.909,0,0,0,16.732-9.235c.058-.058.109-.122.161-.18l.315-.348a41.185,41.185,0,0,0,5.708-8.507,49.655,49.655,0,0,0,2.626-6.133,1766871257994.891,1766871257994.891,0,0,1,.232-.682,58.939,58.939,0,0,0,2.857-13.8.97.97,0,0,1,.032-.3c.032-.1,0-.245.032-.367q.2-2.626.206-5.309A70.439,70.439,0,0,0,250.538,371.317Zm-.444,13.656a58.207,58.207,0,0,1-2.741,13.553q-.109.335-.232.644a49.272,49.272,0,0,1-2.69,6.345,40.491,40.491,0,0,1-5.418,8.134c-.148.18-.309.36-.47.534a27.439,27.439,0,0,1-16.577,9.26q-1.216.174-2.433.232h-.644c-7.33.154-14.653-2.877-21.114-8.745-.817-.74-1.622-1.532-2.413-2.362a50.623,50.623,0,0,1-4.144-4.994l-.187-.27-.193-.27a64.274,64.274,0,0,1-10.715-27.884c-.045-.29-.084-.579-.122-.869a.875.875,0,0,0-.045-.335c-.045-.116,0-.2-.032-.3a66.926,66.926,0,0,1,.418-19.55l.116-.644a51.09,51.09,0,0,1,7.079-18.431q.1-.161.212-.328c.045-.077.1-.154.148-.225.566-.856,1.165-1.68,1.783-2.465a29.911,29.911,0,0,1,12.973-9.82l.431-.154.18-.064a25.017,25.017,0,0,1,4.543-1.094,25.452,25.452,0,0,1,5.367-.193,28.212,28.212,0,0,1,11.184,3.3l.129.064.483.264a41.012,41.012,0,0,1,11.583,9.827,55.986,55.986,0,0,1,7.5,11.97c.032.058.058.122.084.18l.212.45h0a67.982,67.982,0,0,1,5.328,18.4c.077.528.148,1.049.212,1.577a1.1,1.1,0,0,0,.045.38c.045.129,0,.174,0,.264a68.163,68.163,0,0,1,.251,12.87Q250.133,384.631,250.094,384.972Z" transform="translate(-114.111 -181.143)" fill="#fff" opacity="0.3"/>
            <path id="Path_77" data-name="Path 77" d="M3.237,0C5.025,0,6.474,1.994,6.474,4.453S5.025,8.906,3.237,8.906,0,6.913,0,4.453,1.449,0,3.237,0Z" transform="matrix(0.99, -0.143, 0.143, 0.99, 104.489, 190.102)" fill="rgba(255,99,99,0.72)"/>
            <ellipse id="Ellipse_30" data-name="Ellipse 30" cx="3.237" cy="4.453" rx="3.237" ry="4.453" transform="matrix(0.99, -0.143, 0.143, 0.99, 104.489, 190.102)" opacity="0.2"/>
            <circle id="Ellipse_31" data-name="Ellipse 31" cx="8.713" cy="8.713" r="8.713" transform="translate(422.737 20.799)" fill="#6c63ff" opacity="0.1"/>
            <circle id="Ellipse_32" data-name="Ellipse 32" cx="8.713" cy="8.713" r="8.713" transform="translate(21.783 114.071)" fill="#6c63ff" opacity="0.1"/>
            <circle id="Ellipse_33" data-name="Ellipse 33" cx="8.713" cy="8.713" r="8.713" transform="translate(634.289 175.959)" fill="#6c63ff" opacity="0.1"/>
            <circle id="Ellipse_34" data-name="Ellipse 34" cx="8.713" cy="8.713" r="8.713" transform="translate(599.036 228.541)" fill="#6c63ff" opacity="0.1"/>
            <circle id="Ellipse_35" data-name="Ellipse 35" cx="4.016" cy="4.016" r="4.016" transform="translate(453.079 12.33)" fill="#6c63ff" opacity="0.1"/>
            <circle id="Ellipse_36" data-name="Ellipse 36" cx="4.016" cy="4.016" r="4.016" transform="translate(0 98.536)" fill="#6c63ff" opacity="0.1"/>
            <circle id="Ellipse_37" data-name="Ellipse 37" cx="4.016" cy="4.016" r="4.016" transform="translate(634.289 282.822)" fill="#6c63ff" opacity="0.1"/>
            <circle id="Ellipse_38" data-name="Ellipse 38" cx="2.838" cy="2.838" r="2.838" transform="translate(476.124 0)" fill="#6c63ff" opacity="0.1"/>
            <circle id="Ellipse_39" data-name="Ellipse 39" cx="2.838" cy="2.838" r="2.838" transform="translate(18.945 159.993)" fill="#6c63ff" opacity="0.1"/>
            <path id="Path_41" data-name="Path 41" d="M862.206,567.817s-4.814-20.7-8.018-45.87-28.051-66.991-28.051-66.991c-.109-.212-.225-.431-.341-.644a114.239,114.239,0,0,0-13.823-20.5c-10.94-12.915-20.863-18.72-21.359-19h0c-.785-1.2-1.628-2.516-2.516-3.926-3.333-5.27-7.3-11.9-11.081-19.055a2.677,2.677,0,0,0-.09-.5h0c-1.686-10.193-1.75-20.915,3.321-29.718,2.5-4.344,6.113-7.922,8.868-12.1,4.5-6.821,6.551-14.962,8.2-22.993,1.165-5.618,2.169-11.345,1.873-17.066V309.2h0c0-.4-.052-.8-.09-1.2-.946-10.374-6.384-19.692-11.686-28.617-2.793-4.7-5.727-9.543-10.226-12.581-9.357-6.313-20.824-2.362-30.825-5.978-10.625-3.861-20.335-7.458-31.9-8.643-4.1-.418-8.6-.521-11.925,1.931-3.488,2.574-4.646,7.272-6.963,10.985-4.421,7.079-12.761,10.3-19.8,14.75-5.348,3.353-10.477,8.713-11.583,14.614v-.051a13.007,13.007,0,0,0-.206,1.931v.315a11.7,11.7,0,0,0,.476,3.52c.4.206.8.386,1.216.566-.257.418-.515.837-.759,1.287l-.541.959a62.653,62.653,0,0,0,31.282,88.446h0c.38.927.772,1.885,1.158,2.877a145.721,145.721,0,0,1,10.3,52.5h0v2.465h0c-5.792,7.336-11.8,16.436-11.583,22.729.347,10.541-13.707,35.066-17.5,41.475l-.759,1.287h0c-3.784-2.741-8.282-5.206-10.464-3.475l-1.828-1.171c-9.241-5.933-25.741-16.925-31.964-23.5-8.816-9.338-26.05-17.864-26.05-17.864s-13.623-16.243-12.819-22.33c.4-3.031-5.071-27.227-11.847-44.982,4.949.521,10.033,1.145,11.583,1.339l.38.335.534.084c18.733,16.461,22.832,9.125,22.832,9.125,1.532-1.036,2.053-4.157,2.2-5.354v-.283h.1v-.238a1.724,1.724,0,0,0,.1-.219l.045-.084.032-.064a.522.522,0,0,1,.071-.167,2.977,2.977,0,0,0,.251-.643h-.052a24.1,24.1,0,0,0,.393-4.08,4.633,4.633,0,0,0-3.629-4.543.139.139,0,0,0-.032-.1c-2.433-7.233-20.123,3.494-22.079,4.711l-.476.051c-3.546-.708-9.009-2-13.636-3.121-6.274-15.264-13.392-23.81-17.954-5.026l-4.2-.721a3.861,3.861,0,0,0-3,.708,5.09,5.09,0,0,0-1.435,1.635L536.132,391.9l-4.292.148,3.636,1.757.27.129,18.205,2.967a3.945,3.945,0,0,0,3.378,3.4l4.086.592c-7.3,42.595,9.009,56.495,9.009,56.495s19.634,19.254,19.634,23.81c0,3.861,38.328,49.725,49.976,63.567,2.085,2.484,3.321,3.938,3.321,3.938,4.575,5.258,26.578,23.218,36.816,31.494h0c1,8.366,1.931,16.732,2.465,21.32l1.931-.052,9.157-.251,4.929-.148q6.371-.174,12.729-.367l1.622-.045,3.7-.116q7.162-.206,14.318-.425,10.56-.319,21.127-.643c9.653-.341,19.267-.734,28.888-1.287,2.4-.135,4.807-.277,7.214-.438l1.583-.109,2.574-.174c15.741-1.113,31.417-2.716,46.977-5.187,3.1-.5,6.223-1.036,9.331-1.647,1.828-.348,3.655-.727,5.47-1.139,3.681-.817,7.33-1.75,10.895-2.825C863.563,575.8,862.206,567.817,862.206,567.817Z" transform="translate(-239.977 -155.447)" fill="url(#linear-gradient)"/>
            <path id="Path_42" data-name="Path 42" d="M618.693,486.834l-2.394-.084s-16.236-2.014-21.436-2.137a3.591,3.591,0,0,0-1.564.122l1.152-4.646,1.409.347c4.949,1.223,21.352,5.238,23.991,5.328C622.973,485.869,618.693,486.834,618.693,486.834Z" transform="translate(-261.886 -236.774)" fill="#28233d"/>
            <path id="Path_43" data-name="Path 43" d="M629.83,484.176s19.692-12.317,22.266-4.756-4.138,8.675-4.138,8.675Z" transform="translate(-274.908 -235.66)"/>
            <path id="Path_44" data-name="Path 44" d="M629.83,484.176s19.692-12.317,22.266-4.756-4.138,8.675-4.138,8.675Z" transform="translate(-274.908 -235.66)" fill="#28233d" opacity="0.2"/>
            <path id="Path_45" data-name="Path 45" d="M652.263,496.211s-4.151,7.349-23.263-9.37l.264-.341.792-1.023s24.737-11.371,25.381-.264a21.433,21.433,0,0,1-.463,4.3,2.226,2.226,0,0,1-.393.849l-.09.084a3.047,3.047,0,0,1-.052.47C654.316,492.1,653.795,495.175,652.263,496.211Z" transform="translate(-274.612 -236.864)" fill="#28233d"/>
            <path id="Path_46" data-name="Path 46" d="M652.263,499.368S648.113,506.717,629,490l.264-.341.444-.457,24.872,4.318-.09.084a3.047,3.047,0,0,1-.052.47C654.316,495.256,653.795,498.332,652.263,499.368Z" transform="translate(-274.612 -240.021)" opacity="0.1"/>
            <path id="Path_47" data-name="Path 47" d="M653.962,493.337l-25.445-4.093-1.287-1.094,2.33-.27,24.911,4.035a1.847,1.847,0,0,1-.476.933A3.3,3.3,0,0,1,653.962,493.337Z" transform="translate(-273.981 -239.551)" opacity="0.1"/>
            <path id="Path_48" data-name="Path 48" d="M653.572,494.168l-25.445-4.073-1.287-1.088,2.323-.277,24.937,4.035a1.8,1.8,0,0,1-.483.933S653.611,493.878,653.572,494.168Z" transform="translate(-273.842 -239.854)" opacity="0.1"/>
            <path id="Path_49" data-name="Path 49" d="M653.751,493.758l-25.464-4.073L627,488.6l2.323-.277,24.917,4.035a1.931,1.931,0,0,1-.483.933A1.66,1.66,0,0,1,653.751,493.758Z" transform="translate(-273.899 -239.708)" fill="#4c4c56"/>
            <path id="Path_50" data-name="Path 50" d="M594.864,484.614a3.591,3.591,0,0,0-1.564.122l1.152-4.646,1.409.347A17.373,17.373,0,0,1,594.864,484.614Z" transform="translate(-261.886 -236.774)" opacity="0.1"/>
            <path id="Path_51" data-name="Path 51" d="M585.4,476.866l-14.293-2.42a3.893,3.893,0,0,0-3,.7,4.048,4.048,0,0,0-1.847,3.539,3.913,3.913,0,0,0,3.4,3.52l14.331,2.034S586.581,477.928,585.4,476.866Z" transform="translate(-252.245 -234.74)" fill="#d1d9ec"/>
            <path id="Path_52" data-name="Path 52" d="M532.33,473.994l4.3-.154,18.527,2.9a1.023,1.023,0,0,1,.849,1.2h0a1.023,1.023,0,0,1-1.165.811l-18.862-3.031Z" transform="translate(-240.151 -234.546)" opacity="0.1"/>
            <path id="Path_53" data-name="Path 53" d="M531.92,473.8l4.292-.148,18.533,2.9a1.023,1.023,0,0,1,.843,1.19h0a1.023,1.023,0,0,1-1.158.817l-18.868-3.037Z" transform="translate(-240.005 -234.478)" fill="#dfe6f5"/>
            <path id="Path_54" data-name="Path 54" d="M686.821,589.205,658.77,623.267s-1.236-1.435-3.321-3.893c-11.648-13.662-49.976-58.908-49.976-62.744,0-4.5-19.634-23.527-19.634-23.527s-17.633-14.8-8.018-60.929,32.459,44.094,31.661,50.1S622.3,544.32,622.3,544.32s17.234,8.417,26.05,17.633c6.2,6.487,22.723,17.336,31.964,23.167C684.215,587.616,686.821,589.205,686.821,589.205Z" transform="translate(-255.345 -229.289)" fill="#fdc2cc"/>
            <path id="Path_55" data-name="Path 55" d="M731.412,659.031l-28.051,34.062s-1.236-1.435-3.321-3.893c.451-9.537,20.593-30.58,24.158-33.779a2.574,2.574,0,0,1,.708-.45C728.806,657.441,731.412,659.031,731.412,659.031Z" transform="translate(-299.936 -299.115)" opacity="0.1"/>
            <path id="Path_56" data-name="Path 56" d="M744.762,664.966s-12.825-12.021-16.828-8.411-29.255,30.053-23.244,36.867,42.074,35.252,42.074,35.252Z" transform="translate(-301.266 -299.439)" fill="#28233d"/>
            <path id="Path_57" data-name="Path 57" d="M744.762,664.966s-12.825-12.021-16.828-8.411-29.255,30.053-23.244,36.867,42.074,35.252,42.074,35.252Z" transform="translate(-299.266 -298.439)" opacity="0.1"/>
            <path id="Path_58" data-name="Path 58" d="M881.172,474.43s-12.516,12.079-28.193,25.181l-.592.489-.914.759h0c-25.007,20.683-57.235,43-60.556,23.9a26.554,26.554,0,0,1-.045-7.523c.039-.367.09-.747.141-1.133s.1-.746.142-1.113a126.223,126.223,0,0,0,1.036-14.511v-2.433a142.217,142.217,0,0,0-10.3-51.823c-.386-.978-.779-1.931-1.158-2.838h0a112.6,112.6,0,0,0-10.187-19.447s7.446-4.5,17.768-10.3c3.79-2.111,7.96-4.382,12.3-6.66,23.81-12.484,52.441-24.969,48.477-10.3-1.873,6.944-.135,16.159,3.314,25.805.193.534.386,1.055.586,1.583a158.608,158.608,0,0,0,7.722,17.047l.193.373c4.138,7.928,8.6,15.335,12.291,21.095.888,1.39,1.731,2.69,2.516,3.861C878.952,471.405,881.172,474.43,881.172,474.43Z" transform="translate(-325.071 -204.678)" fill="#fdc2cc"/>
            <path id="Path_59" data-name="Path 59" d="M853.047,424.074c-.187.277-.386.553-.586.824-6.011,8.173-12.967,13.038-21.236,15.779a69.228,69.228,0,0,1-19.158,3.076c-1.77.064-3.578.1-5.444.1a108.872,108.872,0,0,1-12.87-.74c-2.246-.354-4.595,1.158-6.866,2.265-1.692.817-3.346,1.416-4.891.849-.386-.978-.779-1.931-1.158-2.838h0a112.6,112.6,0,0,0-10.187-19.447s7.446-4.5,17.768-10.3c3.79-2.111,7.96-4.382,12.3-6.66,23.81-12.484,52.441-24.969,48.477-10.3-1.873,6.944-.135,16.159,3.314,25.805C852.654,423.025,852.847,423.546,853.047,424.074Z" transform="translate(-325.107 -204.678)" opacity="0.1"/>
            <path id="Path_60" data-name="Path 60" d="M848.294,350c0,.94,0,1.866-.064,2.793a61.36,61.36,0,0,1-71.045,57.821,58.865,58.865,0,0,1-6.435-1.377,60.431,60.431,0,0,1-6.049-1.988h0a61.431,61.431,0,0,1-31.346-87.262l.541-.946A61.392,61.392,0,0,1,848.294,350Z" transform="translate(-309.022 -168.516)" fill="#fdc2cc"/>
            <path id="Path_61" data-name="Path 61" d="M892.293,513.969s-97.378,94.167-90.164,41.675a130.054,130.054,0,0,0,1.2-18.057,158.845,158.845,0,0,1,10.753-12L827.76,515.7a76.618,76.618,0,0,1,48.753-14.647,35.392,35.392,0,0,1,7.8,1.075C888.9,509.316,892.293,513.969,892.293,513.969Z" transform="translate(-336.192 -244.217)" opacity="0.1"/>
            <path id="Path_62" data-name="Path 62" d="M945.132,676.983c-3.565,1.062-7.214,1.982-10.895,2.786-1.815.405-3.642.779-5.47,1.126-3.108.6-6.229,1.133-9.331,1.622-15.535,2.439-31.211,4.022-46.977,5.148l-2.574.174-1.583.1c-2.407.161-4.814.3-7.214.438-9.621.541-19.254.933-28.888,1.287-7.079.245-14.087.45-21.127.643l-14.318.418-3.7.109-1.622.045q-6.358.193-12.729.367l-4.929.142-9.157.251-1.931.052c-.515-4.543-1.461-12.8-2.465-21.043h0l-.232-1.931c-1.107-9.093-2.252-17.826-2.915-21.133-1.6-8.012,0-41.276,0-41.276l.174-.277h0l.759-1.287c3.79-6.326,17.845-30.535,17.5-40.941-.206-6.21,5.792-15.194,11.583-22.433.759-.94,1.512-1.853,2.252-2.722,4.614-5.425,8.565-9.286,8.565-9.286l13.675-9.9a76.715,76.715,0,0,1,48.76-14.634c5.148.264,9.254.985,10.3,2.536h0c.444.251,10.419,5.978,21.359,18.759a112.839,112.839,0,0,1,13.823,20.232c.116.206.232.418.341.644,0,0,24.846,41.276,28.051,66.122S942.23,658.4,942.23,658.4,943.6,666.249,945.132,676.983Z" transform="translate(-320.014 -245.565)" fill="#28233d"/>
            <path id="Path_63" data-name="Path 63" d="M873.378,672.03c-2.182,3.546-.09,21.616,2.233,33.148-2.407.161-4.813.3-7.214.438-9.621.541-19.254.933-28.888,1.287-7.079.245-14.087.45-21.127.643l-14.318.418-3.7.109-1.622.045c.753-2.722.9-5.566-1.1-6.834-4.408-2.806-12.825-20.844-12.825-20.844s-7.208,1.609-8.012-57.274a85.083,85.083,0,0,1,3.584-26.674,65.711,65.711,0,0,1,3.031-7.941h0a62.052,62.052,0,0,1,9.949-15.374h0a63.822,63.822,0,0,1,31.108-19.306,51.693,51.693,0,0,1,9.119-.695h.077a47.261,47.261,0,0,1,20.915,5.148,54.454,54.454,0,0,1,7.922,4.833,63.469,63.469,0,0,1,6.641,5.676c22.472,21.88,27.787,56.044,13.906,84.186C878.63,662.036,874.62,670.009,873.378,672.03Z" transform="translate(-327.291 -262.827)" opacity="0.1"/>
            <path id="Path_64" data-name="Path 64" d="M880.855,676.987c-1.976,3.218-.45,18.282,1.577,29.666l-2.574.174-1.583.1c-2.407.161-4.813.3-7.214.438-9.621.541-19.254.933-28.888,1.287-7.079.245-14.087.45-21.127.643l-14.318.418a3.844,3.844,0,0,0-1.615-3.475,9.977,9.977,0,0,1-2.136-2.091c-.187-.225-.38-.47-.573-.721-4.46-5.92-10.11-18.019-10.11-18.019s-7.214,1.6-8.018-57.274c-.257-19.19,4.711-33.232,11.525-43.444a63.912,63.912,0,0,1,36.16-25.882,48.773,48.773,0,0,1,24.39,1.988,49.553,49.553,0,0,1,8.829,4.112,61.183,61.183,0,0,1,10.444,7.922l1.03.985c22.472,21.88,27.781,56.044,13.9,84.186C886.106,666.993,882.1,674.966,880.855,676.987Z" transform="translate(-329.96 -264.579)" opacity="0.1"/>
            <path id="Path_65" data-name="Path 65" d="M875.878,672.008c-2.175,3.539-.1,21.513,2.214,33.045l-1.583.1c-2.407.161-4.814.3-7.214.438-9.621.541-19.254.933-28.888,1.287-7.079.245-14.087.45-21.127.643l-14.318.418-3.7.109c.566-2.079.779-4.221-.052-5.676a3.108,3.108,0,0,0-.573-.721,2.515,2.515,0,0,0-.5-.393c-4.408-2.806-12.825-20.844-12.825-20.844s-7.207,1.609-8.012-57.274c-.3-22.047,6.307-37.324,14.685-47.762a63.93,63.93,0,0,1,33-21.565,52.346,52.346,0,0,1,7.516-.7h.077a47.377,47.377,0,0,1,21.507,4.633,58.465,58.465,0,0,1,15.58,11.081c.746.727,1.48,1.467,2.182,2.22C894.444,593,899,625.822,885.576,653.024,881.129,662.014,877.12,669.987,875.878,672.008Z" transform="translate(-328.188 -262.805)" fill="#28233d"/>
            <path id="Path_66" data-name="Path 66" d="M832.2,676.39s-39.544,28.064-36.172,31.925S832.2,676.39,832.2,676.39Z" transform="translate(-334.08 -306.75)" opacity="0.1"/>
            <path id="Path_67" data-name="Path 67" d="M932.206,687.823s-12.356-11-11.461-6.738S932.206,687.823,932.206,687.823Z" transform="translate(-378.595 -308.074)" opacity="0.1"/>
            <path id="Path_68" data-name="Path 68" d="M884.511,787.741c-9.621.541-19.254.933-28.888,1.287-16.494-1.931-33.643-4.768-33.643-4.768C823.467,783.39,876.087,782.342,884.511,787.741Z" transform="translate(-343.405 -344.952)" opacity="0.1"/>
            <path id="Path_69" data-name="Path 69" d="M1029.188,765.473c-1.815.405-3.642.779-5.47,1.126-.714-11.513-1-21.429-1-21.429A204.341,204.341,0,0,1,1029.188,765.473Z" transform="translate(-414.964 -331.269)" opacity="0.1"/>
            <path id="Path_70" data-name="Path 70" d="M783.238,777.163l-4.929.141c-3.925-10.721-7.3-23.437-8.675-28.836-.425-1.667-.643-2.638-.643-2.638l.611,1.287C771.629,751.345,778.347,765.451,783.238,777.163Z" transform="translate(-324.515 -331.504)" opacity="0.1"/>
            <path id="Path_71" data-name="Path 71" d="M848.889,371.934a60.973,60.973,0,0,1-7.877,14.409c.193.534.386,1.055.586,1.583a158.594,158.594,0,0,0,7.722,17.047l.193.373c.335,2.574.8,5.148,1.332,7.658q-14.672.772-29.377.676c-4.26,0-8.585-.122-12.645-1.4a21.877,21.877,0,0,1-4.788-2.175,24.058,24.058,0,0,1-3.411-2.5,28.959,28.959,0,0,1-9.383-18.443c-.586-5.528.251-11.255-1.351-16.577a18.12,18.12,0,0,0-.643-1.744,19.228,19.228,0,0,0-15.007-11.416,4.112,4.112,0,0,0-2.793.38,4.666,4.666,0,0,0-1.512,2.342l-6.635,17.3c-4.724,1.184-8.057-4.987-7.664-9.839s2.574-9.82.959-14.415c-.5-1.422-1.339-2.716-1.7-4.17-1.435-5.734,4.73-10.824,4.781-16.732.039-4.859-4.119-8.784-8.533-10.8-4.048-1.853-8.52-2.651-12.574-4.46a61.392,61.392,0,0,1,114.373,30.979c0,.94,0,1.866-.064,2.793A61.008,61.008,0,0,1,848.889,371.934Z" transform="translate(-313.671 -168.529)" opacity="0.1"/>
            <path id="Path_72" data-name="Path 72" d="M787.6,259.264c-4.1-.412-8.6-.515-11.924,1.931-3.488,2.574-4.646,7.182-6.963,10.843-4.421,7-12.761,10.2-19.8,14.556s-13.707,12.137-11.352,20.078c4.337,2.188,9.26,2.954,13.675,4.974s8.572,5.946,8.533,10.8c-.052,5.908-6.216,11-4.781,16.732.36,1.454,1.2,2.748,1.7,4.17,1.6,4.595-.566,9.563-.959,14.415s2.941,11.024,7.664,9.839l6.68-17.3a4.666,4.666,0,0,1,1.512-2.342,4.112,4.112,0,0,1,2.793-.38,19.158,19.158,0,0,1,15.6,13.16c1.6,5.322.766,11.049,1.351,16.577,1.075,10.193,7.812,20.052,17.594,23.122,4.061,1.287,8.366,1.371,12.645,1.4q14.692.109,29.377-.676c-2.413-11.352-3.4-23.894,2.452-33.907,2.5-4.286,6.114-7.819,8.868-11.95,4.5-6.731,6.551-14.769,8.2-22.691,1.287-6,2.336-12.143,1.77-18.25-.946-10.238-6.384-19.441-11.686-28.244-2.793-4.64-5.727-9.428-10.226-12.426-9.357-6.229-20.824-2.323-30.825-5.9C808.878,264,799.167,260.435,787.6,259.264Z" transform="translate(-313.14 -157.974)" fill="#865a61"/>
            <g id="Group_6" data-name="Group 6" transform="translate(423.942 142.997)" opacity="0.1">
              <path id="Path_73" data-name="Path 73" d="M766.9,386.93a13.258,13.258,0,0,0-.418-6.133c-.451-1.287-1.178-2.478-1.583-3.777a8.089,8.089,0,0,0-.109,4.112c.36,1.454,1.2,2.748,1.693,4.17A9.929,9.929,0,0,1,766.9,386.93Z" transform="translate(-746.884 -343.029)"/>
              <path id="Path_74" data-name="Path 74" d="M759.469,343.319a9.834,9.834,0,0,0,.3-2.252c.039-4.852-4.112-8.784-8.527-10.8s-9.338-2.786-13.675-4.974a11.122,11.122,0,0,1-.264-1.088,11.808,11.808,0,0,0,.264,5.592c4.337,2.188,9.26,2.954,13.675,4.974C754.951,336.466,758.459,339.516,759.469,343.319Z" transform="translate(-737.082 -324.2)"/>
              <path id="Path_75" data-name="Path 75" d="M831.885,443.663c-4.254,0-8.578-.122-12.639-1.4-9.782-3.07-16.519-12.928-17.594-23.122-.586-5.528.251-11.249-1.351-16.577a19.158,19.158,0,0,0-15.625-13.16,4.112,4.112,0,0,0-2.793.38,4.621,4.621,0,0,0-1.512,2.342l-6.635,17.3c-3.8.952-6.693-2.844-7.484-6.892-.071.521-.142,1.043-.18,1.557-.4,4.852,2.941,11.024,7.664,9.839l6.68-17.3a4.621,4.621,0,0,1,1.512-2.342,4.113,4.113,0,0,1,2.793-.38,19.158,19.158,0,0,1,15.6,13.16c1.6,5.328.766,11.049,1.351,16.577,1.075,10.193,7.812,20.052,17.594,23.122,4.061,1.287,8.366,1.371,12.639,1.4q14.7.109,29.383-.644c-.309-1.474-.6-2.967-.856-4.466Q846.165,443.76,831.885,443.663Z" transform="translate(-747.405 -347.411)"/>
              <path id="Path_76" data-name="Path 76" d="M932.495,359.281c-1.66,7.922-3.713,15.959-8.2,22.691-2.754,4.131-6.364,7.664-8.868,11.95-3.578,6.12-4.595,13.186-4.3,20.348a33.908,33.908,0,0,1,4.3-15.844c2.5-4.286,6.113-7.819,8.868-11.95,4.5-6.731,6.545-14.769,8.2-22.691,1.171-5.592,2.188-11.3,1.866-17A83.119,83.119,0,0,1,932.495,359.281Z" transform="translate(-799.107 -332.253)"/>
            </g>
          </g>
        </g>
      </g>
    </g>
  </g>
</svg>
